<?xml version="1.0" encoding="UTF-8"?>
<svg id="uuid-191cba77-fc7a-486e-a7fc-fa2644807243" data-name="Layer 1" xmlns="http://www.w3.org/2000/svg" viewBox="0 0 11.35 6.15">
  <path d="m0,.76s.13-.19.27-.21c.14-.02.8-.05,1.06.06.25.11.61.45.61.45l-.42.2.03.1s.35-.03.4,0c0,0,.04-.23.16-.21.11.03.3.06.26.39l.61.61s.17.16.3.17.2,0,.23.17c.03.18.03.23-.06.22-.09,0-.2-.26-.29-.07-.1.19,0,.16-.1.29s0,.42-.23.33c-.23-.1-.45-.26-.33-.46s-.03-.28-.09-.26c-.06.02-.54-.79-.85-.75-.31.03-.1-.4-.1-.4,0,0-.08-.14-.23-.04-.15.1-.23-.32-.51-.38-.28-.06-.66-.27-.71-.22Z" style="fill: #a3d9d2; stroke-width: 0px;"/>
  <path d="m3.25,2.88s-.4.65-.14.79.56,0,.66.26c.1.25.59.48.59.74s.15.22.15.22c0,0-.1.38.33.57,0,0-.16.29.04.37s.48.06.48.06c0,0,.23.3.39.27s.38-.21.38-.21c0,0,.05-.12.41.11.35.23.32-.43.69-.52.37-.09.18-.59.18-.59,0,0-.29.4-.35.26-.07-.14,1.52-1.73,1.85-1.66.33.07.35-.55.13-.55-.22,0-.29-.31-.59-.11-.3.2-.23.6-.23.6,0,0-.13.16-.16-.06-.03-.22-1.02,1.14-1.19,1.25s-.4.25-.28.49l-.12.06s-.15.05-.1-.1.13-.29.08-.46c-.05-.16,1-1,1.06-1.3l-.27.05s-.16-.13.09-.18,1.03-.44.69-.79c0,0,.07-.05-.39-.03,0,0-.34-.41-.52-.24-.18.16-.33.12-.23.79,0,0-.21.57-.5,1.08s-.24.48-.24.48c0,0-.35.24-.21.65s-.43-.14-.07-.62c0,0,.14-1.27.43-1.61,0,0-.04-.07-.26-.03-.22.04.97-.46.49-1-.48-.54-.61.71-.73.17,0,0,.31-.33-.05-.26s-.16.1-.22.28.1.32.15.6c.05.28-.21-.08-.18.2.03.28-.11.59-.07,1.02.04.43-.17.52-.2.78s-.23.37-.03.53c.21.16-.19.14-.25-.09-.06-.23.02-.42.2-.64,0,0,.06-.03.07-.61,0,0-.14.07-.15-.48,0-.55.06-1.08-.14-.83,0,0-.14-.04.04-.23.18-.18.29-.29.17-.68-.12-.39-.49-.29-.63-.16s-.2-.07.03-.16c.23-.1.48-.44.75.16,0,0,.28-.74.52-.74.24,0,.33-.69.03-.63-.29.06-.49.11-.38,0,.11-.12-.15-.2-.25-.08-.1.11-.17.19.03.16,0,0-.59.52-.63.89,0,0-.21.35-.48.39s-.31.27-.15.61c.16.35.3.23.27-.03,0,0,.1-.18.13.14.03.32.24.37.24.37,0,0-.02.26-.2.05-.18-.21-.23-.17-.2-.09.03.09.5,1.58.5,1.58l.08.52s-.09.05-.14,0-.06-.57-.23-.8c-.16-.23-.41-.32-.42-.48,0-.16.04-.47-.21-.48-.25,0-.44-.15-.6,0h0Z" style="fill: #a3d9d2; stroke-width: 0px;"/>
  <path d="m6.36.86s-.17.25-.25.42c-.08.17-.38.3-.17.42.2.11.49-.28.64-.07.15.21.17.11.18-.06,0-.17.54-.56.55-.71,0-.14-.13-.3-.32-.26,0,0-.19-.33-.4-.13-.21.21-.12.23-.22.38h0Z" style="fill: #a3d9d2; stroke-width: 0px;"/>
  <path d="m7.6,1.47l-.25.38s-.13.16.08.2c.21.05.33.26.37.13.03-.13.13-.04.13.09,0,.13.43-.06.23-.3s.28-.62.29-.84-.32-.28-.43-.17c0,0-.05-.09-.19-.05-.15.04-.17.14-.16.21.01.07-.02.28-.06.35h0Z" style="fill: #a3d9d2; stroke-width: 0px;"/>
  <path d="m10.21,1.61s0-.27-.16-.25-.2.15-.19.23c.01.08-.8.92-.8.92,0,0-.33.06-.28.17,0,0,.15.07.15.15s.14,0,.17.06.24.16.24-.14c0-.3.11,0,.24-.16.13-.16.47-.65.63-.72.16-.07.26-.14.24-.19-.02-.06-.1-.11-.15-.07s-.09,0-.09,0h0Z" style="fill: #a3d9d2; stroke-width: 0px;"/>
  <path d="m11.27.46s-.09-.08-.19,0-.74.64-.74.64c0,0-.11.08-.05.19.07.12.24.25.36.12.11-.13.96-.85.62-.95h0Z" style="fill: #a3d9d2; stroke-width: 0px;"/>
</svg>