<svg
    class="social-icon"
    xmlns="http://www.w3.org/2000/svg"
    viewBox="0 0 1410 763.9"
>
    <path
    d="m0,93.86s16.12-23.65,33.32-25.8c17.2-2.15,99.97-6.45,131.14,7.52,31.17,13.97,76.32,55.9,76.32,55.9l-52.67,24.72,3.22,12.9s43-4.3,49.45,0c0,0,5.37-29.02,19.35-25.8,13.97,3.22,37.62,7.52,32.25,48.37l75.25,76.32s21.5,19.35,37.62,21.5c16.12,2.15,24.72-1.07,27.95,21.5,3.22,22.57,3.22,27.95-7.52,26.87-10.75-1.07-24.72-32.25-36.55-8.6-11.82,23.65,0,19.35-11.82,35.47-11.82,16.12,1.07,52.67-27.95,40.85-29.02-11.82-55.9-32.25-40.85-56.97,15.05-24.72-3.22-34.4-10.75-32.25-7.52,2.15-66.65-97.82-105.35-93.52-38.7,4.3-12.9-49.45-12.9-49.45,0,0-9.67-17.2-27.95-5.37-18.27,11.82-29.02-39.77-63.42-47.3C53.75,113.21,6.45,87.41,0,93.86Z"
    />
    <path
    d="m404.18,357.22s-49.45,80.62-17.2,97.82c32.25,17.2,69.87,1.07,81.7,32.25,11.82,31.17,73.1,59.12,73.1,91.37s18.27,26.87,18.27,26.87c0,0-11.82,47.3,40.85,70.95,0,0-19.35,35.47,5.37,46.22,24.72,10.75,60.2,7.52,60.2,7.52,0,0,29.02,37.62,48.37,33.32,19.35-4.3,47.3-25.8,47.3-25.8,0,0,6.45-15.05,50.52,13.97,44.07,29.02,39.77-53.75,86-64.5,46.22-10.75,22.57-73.1,22.57-73.1,0,0-35.47,49.45-44.07,32.25-8.6-17.2,189.19-214.99,230.04-206.39,40.85,8.6,43-67.72,16.12-68.8-26.87-1.07-35.47-38.7-73.1-13.97-37.62,24.72-27.95,74.17-27.95,74.17,0,0-16.12,19.8-19.35-7.84-3.22-27.64-126.84,141.13-148.34,155.1-21.5,13.97-49.45,31.17-34.4,61.27l-15.05,7.52s-18.27,6.45-11.82-11.82c6.45-18.27,16.12-36.55,9.67-56.97-6.45-20.42,123.62-124.69,131.14-161.24l-33.32,6.14s-19.35-15.81,10.75-22.26c30.1-6.45,127.92-54.82,86-97.82,0,0,8.6-6.45-48.37-4.3,0,0-41.92-50.52-64.5-30.1-22.57,20.42-40.85,15.05-27.95,97.82,0,0-25.8,70.95-62.35,134.37-36.55,63.42-30.1,59.12-30.1,59.12,0,0-43,30.1-25.8,80.62,17.2,50.52-53.75-17.2-8.6-77.4,0,0,17.2-158.02,53.75-199.94,0,0-5.37-8.6-32.25-3.22-26.87,5.37,120.4-57.01,61.27-123.64-59.12-66.63-75.25,88.16-90.3,21.52,0,0,38.7-40.85-6.45-32.25-45.15,8.6-19.35,12.9-26.87,34.4-7.52,21.5,12.65,39.77,19.22,74.17,6.58,34.4-25.67-9.67-22.45,24.72,3.22,34.4-13.97,73.1-8.6,126.84,5.37,53.75-21.5,64.5-24.72,96.75-3.22,32.25-29.02,46.22-3.22,65.57,25.8,19.35-23.65,17.2-31.17-10.75-7.52-27.95,2.15-51.6,24.72-79.55,0,0,7.52-4.3,8.6-75.25,0,0-17.2,9.05-18.27-59.43-1.07-68.49,7.52-134.06-17.2-102.88,0,0-17.2-5.37,5.37-27.95,22.57-22.57,36.55-35.47,21.5-83.85-15.05-48.37-61.27-35.47-78.47-20.42-17.2,15.05-24.72-8.6,3.22-20.42,27.95-11.82,59.12-54.82,93.52,19.35,0,0,34.4-92.45,64.5-91.37,30.1,1.07,40.85-86,4.3-78.47-36.55,7.52-61.27,14.13-47.3-.46,13.97-14.59-18.27-24.26-31.17-10.29-12.9,13.97-21.08,23.28,3.22,20.42,0,0-73.55,65.14-78.47,110.72,0,0-25.8,43-59.12,48.37-33.32,5.37-38.7,33.32-18.27,76.32,20.42,43,37.62,29.02,33.32-4.3,0,0,11.82-22.57,16.12,17.2,4.3,39.77,30.1,46.22,30.1,46.22,0,0-2.15,32.25-24.72,6.45-22.57-25.8-29.02-21.5-24.72-10.75,4.3,10.75,62.35,195.64,62.35,195.64l9.67,64.5s-10.75,6.45-17.2-1.07c-6.45-7.52-7.52-70.95-27.95-98.9-20.42-27.95-50.52-39.77-51.6-60.2-1.07-20.42,5.37-58.05-25.8-59.12-31.17-1.07-54.82-18.27-74.17-1.07Z"
    />
    <path
    d="m790.09,106.76s-21.61,31.17-31.5,52.14c-9.89,20.96-46.98,37.62-21.71,51.6,25.26,13.97,61.27-34.4,80.08-8.6,18.81,25.8,21.5,13.97,22.04-7.52.54-21.5,66.65-69.87,67.72-87.61,1.07-17.74-16.66-37.09-39.77-31.71,0,0-23.66-41.39-49.45-15.59-25.79,25.8-14.82,28.23-27.41,47.3Z"
    />
    <path
    d="m943.27,182.54l-31.17,47.3s-15.59,19.35,10.21,25.26c25.8,5.91,41.39,32.25,45.69,16.12,4.3-16.12,16.2-5.38,16.66,11.29.47,16.67,53.75-7.52,28.49-37.62-25.26-30.1,34.4-76.86,35.47-104.81,1.07-27.95-39.77-34.4-53.75-20.96,0,0-5.91-11.35-24.19-6.75-18.27,4.6-20.96,17.5-19.35,26.64,1.61,9.14-2.15,34.57-8.06,43.54Z"
    />
    <path
    d="m1268.45,199.62s1.07-33.2-19.89-31.59c-20.96,1.61-24.72,18.27-23.11,28.49,1.61,10.21-99.43,114.48-99.43,114.48,0,0-40.85,7.52-34.4,20.96,0,0,18.54,8.87,18.54,18.95s16.93.81,21.36,8.06,30.23,19.75,29.43-17.74c-.81-37.49,13.3.4,29.83-19.75,16.53-20.16,57.8-80.22,77.67-89.09,19.88-8.87,31.97-16.93,29.55-24.19-2.42-7.26-12.9-13.15-18.14-8.59-5.24,4.56-11.42,0-11.42,0Z"
    />
    <path
    d="m1400,57.45s-11.29-10.08-23.38,0c-12.09,10.08-91.91,79.01-91.91,79.01,0,0-14.11,9.67-5.64,24.19,8.47,14.51,30.23,31.44,44.34,15.32,14.11-16.12,118.92-105.21,76.59-118.51Z"
    />
</svg>